<?xml version="1.0" encoding="UTF-8" standalone="no"?>
<!DOCTYPE svg PUBLIC "-//W3C//DTD SVG 1.0//EN" "http://www.w3.org/TR/2001/PR-SVG-20010719/DTD/svg10.dtd">
<svg width="22cm" height="35cm" viewBox="438 92 428 697" xmlns="http://www.w3.org/2000/svg" xmlns:xlink="http://www.w3.org/1999/xlink">
  <g id="Background">
    <g>
      <path style="fill: #ffffff; fill-opacity: 1; stroke-opacity: 1; stroke-width: 2; stroke: #000000" fill-rule="evenodd" d="M 503.825 95 L 556.175,95 C 563.403,95 569.263,103.954 569.263,115 C 569.263,126.046 563.403,135 556.175,135 L 503.825,135 C 496.597,135 490.738,126.046 490.738,115 C 490.738,103.954 496.597,95 503.825,95z"/>
      <text font-size="12.7998" style="fill: #000000; fill-opacity: 1; stroke: none;text-anchor:middle;font-family:sans-serif;font-style:normal;font-weight:normal" x="530" y="119">
        <tspan x="530" y="119">Launch</tspan>
      </text>
    </g>
    <g>
      <rect style="fill: #ffffff; fill-opacity: 1; stroke-opacity: 1; stroke-width: 2; stroke: #000000" x="479.75" y="174" width="100.5" height="54" rx="0" ry="0"/>
      <text font-size="12.7998" style="fill: #000000; fill-opacity: 1; stroke: none;text-anchor:middle;font-family:sans-serif;font-style:normal;font-weight:normal" x="530" y="196.9">
        <tspan x="530" y="196.9">Deploy</tspan>
        <tspan x="530" y="212.9">MainVerticle</tspan>
      </text>
    </g>
    <g>
      <rect style="fill: #ffffff; fill-opacity: 1; stroke-opacity: 1; stroke-width: 2; stroke: #000000" x="471.425" y="267" width="117.15" height="54" rx="0" ry="0"/>
      <text font-size="12.7998" style="fill: #000000; fill-opacity: 1; stroke: none;text-anchor:middle;font-family:sans-serif;font-style:normal;font-weight:normal" x="530" y="289.9">
        <tspan x="530" y="289.9">Intialize Config</tspan>
        <tspan x="530" y="305.9">Retriever</tspan>
      </text>
    </g>
    <g>
      <polygon style="fill: #ffffff; fill-opacity: 1; stroke-opacity: 1; stroke-width: 2; stroke: #000000" fill-rule="evenodd" points="530,362.306 599.388,397 530,431.694 460.612,397 "/>
      <text font-size="12.7998" style="fill: #000000; fill-opacity: 1; stroke: none;text-anchor:middle;font-family:sans-serif;font-style:normal;font-weight:normal" x="530" y="400.9">
        <tspan x="530" y="400.9">Success?</tspan>
      </text>
    </g>
    <g>
      <rect style="fill: #ffffff; fill-opacity: 1; stroke-opacity: 1; stroke-width: 2; stroke: #000000" x="471.913" y="479.3" width="117.15" height="54" rx="0" ry="0"/>
      <text font-size="12.7998" style="fill: #000000; fill-opacity: 1; stroke: none;text-anchor:middle;font-family:sans-serif;font-style:normal;font-weight:normal" x="530.488" y="502.2">
        <tspan x="530.488" y="502.2">Verify/Load</tspan>
        <tspan x="530.488" y="518.2">DB Schema</tspan>
      </text>
    </g>
    <g>
      <polygon style="fill: #ffffff; fill-opacity: 1; stroke-opacity: 1; stroke-width: 2; stroke: #000000" fill-rule="evenodd" points="530.488,574.606 599.876,609.3 530.488,643.994 461.1,609.3 "/>
      <text font-size="12.7998" style="fill: #000000; fill-opacity: 1; stroke: none;text-anchor:middle;font-family:sans-serif;font-style:normal;font-weight:normal" x="530.488" y="613.2">
        <tspan x="530.488" y="613.2">Success?</tspan>
      </text>
    </g>
    <g>
      <rect style="fill: #ffffff; fill-opacity: 1; stroke-opacity: 1; stroke-width: 2; stroke: #000000" x="736.913" y="173.3" width="117.15" height="54" rx="0" ry="0"/>
      <text font-size="12.7998" style="fill: #000000; fill-opacity: 1; stroke: none;text-anchor:middle;font-family:sans-serif;font-style:normal;font-weight:normal" x="795.488" y="204.2">
        <tspan x="795.488" y="204.2">Load API Spec</tspan>
      </text>
    </g>
    <g>
      <polygon style="fill: #ffffff; fill-opacity: 1; stroke-opacity: 1; stroke-width: 2; stroke: #000000" fill-rule="evenodd" points="795.488,268.606 864.876,303.3 795.488,337.994 726.1,303.3 "/>
      <text font-size="12.7998" style="fill: #000000; fill-opacity: 1; stroke: none;text-anchor:middle;font-family:sans-serif;font-style:normal;font-weight:normal" x="795.488" y="307.2">
        <tspan x="795.488" y="307.2">Success?</tspan>
      </text>
    </g>
    <g>
      <rect style="fill: #ffffff; fill-opacity: 1; stroke-opacity: 1; stroke-width: 2; stroke: #000000" x="736.913" y="382.3" width="117.15" height="54" rx="0" ry="0"/>
      <text font-size="12.7998" style="fill: #000000; fill-opacity: 1; stroke: none;text-anchor:middle;font-family:sans-serif;font-style:normal;font-weight:normal" x="795.488" y="405.2">
        <tspan x="795.488" y="405.2">Create HTTP</tspan>
        <tspan x="795.488" y="421.2">Server</tspan>
      </text>
    </g>
    <g>
      <polygon style="fill: #ffffff; fill-opacity: 1; stroke-opacity: 1; stroke-width: 2; stroke: #000000" fill-rule="evenodd" points="795.488,477.606 864.876,512.3 795.488,546.994 726.1,512.3 "/>
      <text font-size="12.7998" style="fill: #000000; fill-opacity: 1; stroke: none;text-anchor:middle;font-family:sans-serif;font-style:normal;font-weight:normal" x="795.488" y="516.2">
        <tspan x="795.488" y="516.2">Success?</tspan>
      </text>
    </g>
    <g>
      <path style="fill: #ffffff; fill-opacity: 1; stroke-opacity: 1; stroke-width: 2; stroke: #000000" fill-rule="evenodd" d="M 765.275 590 L 823.725,590 C 831.795,590 838.338,599.85 838.338,612 C 838.338,624.15 831.795,634 823.725,634 L 765.275,634 C 757.205,634 750.663,624.15 750.663,612 C 750.663,599.85 757.205,590 765.275,590z"/>
      <text font-size="12.7998" style="fill: #000000; fill-opacity: 1; stroke: none;text-anchor:middle;font-family:sans-serif;font-style:normal;font-weight:normal" x="794.5" y="616">
        <tspan x="794.5" y="616">Running</tspan>
      </text>
    </g>
    <polyline style="fill: none; stroke-opacity: 1; stroke-width: 2; stroke: #000000" points="530,135 530,154.5 530,154.5 530,174 "/>
    <polyline style="fill: none; stroke-opacity: 1; stroke-width: 2; stroke: #000000" points="530,228 530,247.5 530,247.5 530,267 "/>
    <polyline style="fill: none; stroke-opacity: 1; stroke-width: 2; stroke: #000000" points="530,321 530,341.653 530,341.653 530,362.306 "/>
    <polyline style="fill: none; stroke-opacity: 1; stroke-width: 2; stroke: #00ff00" points="530,431.694 530,455.497 530.488,455.497 530.488,479.3 "/>
    <polyline style="fill: none; stroke-opacity: 1; stroke-width: 2; stroke: #000000" points="530.488,534.293 530.488,554.456 530.488,554.456 530.488,574.606 "/>
    <polyline style="fill: none; stroke-opacity: 1; stroke-width: 2; stroke: #00ff00" points="530.488,643.994 530.488,664.994 662.988,664.994 662.988,152.3 795.488,152.3 795.488,173.3 "/>
    <polyline style="fill: none; stroke-opacity: 1; stroke-width: 2; stroke: #000000" points="795.488,227.3 795.488,247.953 795.488,247.953 795.488,268.606 "/>
    <polyline style="fill: none; stroke-opacity: 1; stroke-width: 2; stroke: #00ff00" points="795.488,337.994 795.488,360.147 795.488,360.147 795.488,382.3 "/>
    <polyline style="fill: none; stroke-opacity: 1; stroke-width: 2; stroke: #000000" points="795.488,437.307 795.488,457.456 795.488,457.456 795.488,477.606 "/>
    <polyline style="fill: none; stroke-opacity: 1; stroke-width: 2; stroke: #00ff00" points="795.488,547.994 795.488,568.997 794.5,568.997 794.5,590 "/>
    <g>
      <path style="fill: #ffffff; fill-opacity: 1; stroke-opacity: 1; stroke-width: 2; stroke: #000000" fill-rule="evenodd" d="M 635.712 743.3 L 694.162,743.3 C 702.233,743.3 708.775,753.15 708.775,765.3 C 708.775,777.45 702.233,787.3 694.162,787.3 L 635.712,787.3 C 627.642,787.3 621.1,777.45 621.1,765.3 C 621.1,753.15 627.642,743.3 635.712,743.3z"/>
      <text font-size="12.7998" style="fill: #000000; fill-opacity: 1; stroke: none;text-anchor:middle;font-family:sans-serif;font-style:normal;font-weight:normal" x="664.937" y="761.3">
        <tspan x="664.937" y="761.3">Failed</tspan>
        <tspan x="664.937" y="777.3">Exit</tspan>
      </text>
    </g>
    <polyline style="fill: none; stroke-opacity: 1; stroke-width: 2; stroke: #ff0000" points="461.1,609.3 440.1,609.3 440.1,713 664.937,713 664.937,743.3 "/>
    <polyline style="fill: none; stroke-opacity: 1; stroke-width: 2; stroke: #ff0000" points="460.612,397 439.612,397 439.612,713 664.937,713 664.937,743.3 "/>
    <polyline style="fill: none; stroke-opacity: 1; stroke-width: 2; stroke: #ff0000" points="726.1,303.3 698,303.3 698,713 664.937,713 664.937,743.3 "/>
    <polyline style="fill: none; stroke-opacity: 1; stroke-width: 2; stroke: #ff0000" points="726.1,512.3 698.162,512.3 698.162,713 664.937,713 664.937,743.3 "/>
    <text font-size="12.7998" style="fill: #000000; fill-opacity: 1; stroke: none;text-anchor:start;font-family:sans-serif;font-style:normal;font-weight:normal" x="446" y="386">
      <tspan x="446" y="386">No</tspan>
    </text>
    <text font-size="12.7998" style="fill: #000000; fill-opacity: 1; stroke: none;text-anchor:start;font-family:sans-serif;font-style:normal;font-weight:normal" x="448.1" y="599.2">
      <tspan x="448.1" y="599.2">No</tspan>
    </text>
    <text font-size="12.7998" style="fill: #000000; fill-opacity: 1; stroke: none;text-anchor:start;font-family:sans-serif;font-style:normal;font-weight:normal" x="705.2" y="291.5">
      <tspan x="705.2" y="291.5">No</tspan>
    </text>
    <text font-size="12.7998" style="fill: #000000; fill-opacity: 1; stroke: none;text-anchor:start;font-family:sans-serif;font-style:normal;font-weight:normal" x="707.3" y="498.8">
      <tspan x="707.3" y="498.8">No</tspan>
    </text>
    <text font-size="12.7998" style="fill: #000000; fill-opacity: 1; stroke: none;text-anchor:start;font-family:sans-serif;font-style:normal;font-weight:normal" x="536.4" y="455.1">
      <tspan x="536.4" y="455.1">Yes</tspan>
    </text>
    <text font-size="12.7998" style="fill: #000000; fill-opacity: 1; stroke: none;text-anchor:start;font-family:sans-serif;font-style:normal;font-weight:normal" x="537.1" y="658.2">
      <tspan x="537.1" y="658.2">Yes</tspan>
    </text>
    <text font-size="12.7998" style="fill: #000000; fill-opacity: 1; stroke: none;text-anchor:start;font-family:sans-serif;font-style:normal;font-weight:normal" x="801.2" y="355.5">
      <tspan x="801.2" y="355.5">Yes</tspan>
    </text>
    <text font-size="12.7998" style="fill: #000000; fill-opacity: 1; stroke: none;text-anchor:start;font-family:sans-serif;font-style:normal;font-weight:normal" x="800.3" y="568.8">
      <tspan x="800.3" y="568.8">Yes</tspan>
    </text>
  </g>
</svg>
